<svg height="512pt" viewBox="-29 0 512 512" width="512pt" xmlns="http://www.w3.org/2000/svg"><path d="m146.671875 300.042969-26.097656-15-27.292969-104.976563h-93.28125v-29.996094h116.675781l29.996094 119.976563zm0 0" fill="#3e5959"/><path d="m116.675781 270.046875 35.992188 181.964844h264.546875l35.996094-181.964844zm0 0" fill="#ff7816"/><path d="m453.210938 270.046875-35.996094 181.964844h-132.269532v-181.964844zm0 0" fill="#ff4b00"/><path d="m329.933594 210.058594h89.984375v29.996094h-89.984375zm0 0" fill="#663325"/><path d="m304.539062 137.675781-95.378906 95.679688-21.296875-21.296875 95.378907-95.382813 10.5 10.5zm0 0" fill="#99503d"/><path d="m304.539062 137.675781-95.378906 95.679688-10.800781-10.796875 95.382813-95.382813zm0 0" fill="#663325"/><path d="m293.847656 127.070312-42.453125-42.21875 63.671875-63.671874 42.484375 42.246093 42.457031 42.453125-63.675781 63.675782zm0 0" fill="#fdbf00"/><path d="m336.332031 169.554688 63.675781-63.675782-42.457031-42.453125-.027343-.03125-63.675782 63.675781zm0 0" fill="#ff9f00"/><path d="m336.308594 21.148438-21.273438-21.148438-84.878906 84.882812 21.265625 21.148438zm0 0" fill="#99503d"/><path d="m315.121094 169.558594 84.882812-84.886719 21.210938 21.210937-84.882813 84.882813zm0 0" fill="#663325"/><path d="m209.957031 330.035156h29.996094v61.988282h-29.996094zm0 0" fill="#ff4b00"/><path d="m269.945312 330.035156h29.996094v61.988282h-29.996094zm0 0" fill="#ff4b00"/><path d="m329.933594 330.035156h29.996094v61.988282h-29.996094zm0 0" fill="#dd3400"/><path d="m224.957031 512c-24.808593 0-44.992187-20.183594-44.992187-44.992188 0-24.808593 20.183594-44.988281 44.992187-44.988281 24.808594 0 44.988281 20.179688 44.988281 44.988281 0 24.808594-20.179687 44.992188-44.988281 44.992188zm0 0" fill="#3e5959"/><path d="m224.957031 452.011719c-8.277343 0-15 6.722656-15 14.996093 0 8.277344 6.722657 15 15 15 8.273438 0 14.996094-6.722656 14.996094-15 0-8.273437-6.722656-14.996093-14.996094-14.996093zm0 0" fill="#ede9e8"/><path d="m284.945312 330.035156h14.996094v61.988282h-14.996094zm0 0" fill="#dd3400"/><path d="m344.933594 512c-24.8125 0-44.992188-20.183594-44.992188-44.992188 0-24.808593 20.179688-44.988281 44.992188-44.988281 24.808594 0 44.988281 20.179688 44.988281 44.988281 0 24.808594-20.179687 44.992188-44.988281 44.992188zm0 0" fill="#384949"/><path d="m344.933594 452.011719c-8.277344 0-15 6.722656-15 14.996093 0 8.277344 6.722656 15 15 15 8.273437 0 14.996094-6.722656 14.996094-15 0-8.273437-6.722657-14.996093-14.996094-14.996093zm0 0" fill="#dfd7d5"/></svg>